<?xml version="1.0" encoding="utf-8"?>
<!-- Generator: Adobe Illustrator 27.5.0, SVG Export Plug-In . SVG Version: 6.00 Build 0)  -->
<svg version="1.1" id="Ñëîé_1" xmlns="http://www.w3.org/2000/svg" xmlns:xlink="http://www.w3.org/1999/xlink" x="0px" y="0px"
	 viewBox="0 0 2355.713 2200" style="enable-background:new 0 0 2355.713 2200;" xml:space="preserve">
<rect style="fill:#FFFFFF;" width="2355.713" height="2200"/>
<g>
	<path style="fill:#322A28;" d="M1109.563,281.458h17.87l42.668,98.078h-24.381l-8.45-20.78h-38.095l-8.174,20.78h-23.827
		L1109.563,281.458z M1117.874,309.996l-11.912,30.475h23.966L1117.874,309.996z"/>
	<path style="fill:#322A28;" d="M1179.935,281.458h36.432c5.079,0,9.881,0.463,14.407,1.386c4.524,0.923,8.471,2.516,11.845,4.779
		c3.37,2.263,6.046,5.312,8.033,9.143c1.985,3.833,2.979,8.657,2.979,14.475c0,5.727-0.925,10.528-2.771,14.407
		c-1.848,3.879-4.387,6.973-7.62,9.28c-3.232,2.31-7.064,3.949-11.497,4.918c-4.432,0.969-9.236,1.454-14.407,1.454h-15.792v38.234
		h-21.61V281.458z M1201.545,323.017h14.407c1.939,0,3.81-0.184,5.61-0.554c1.802-0.369,3.416-0.991,4.849-1.871
		c1.431-0.875,2.586-2.078,3.464-3.601c0.877-1.524,1.315-3.439,1.315-5.749c0-2.493-0.577-4.501-1.732-6.025
		c-1.155-1.526-2.632-2.702-4.432-3.534c-1.802-0.83-3.81-1.361-6.027-1.593c-2.217-0.23-4.341-0.346-6.372-0.346h-11.082V323.017z"
		/>
	<path style="fill:#322A28;" d="M1266.929,281.458h21.61v98.078h-21.61V281.458z"/>
</g>
<g>
	<path style="fill:#E5F0F8;" d="M408.536,1998.817c0,0-605.457-1568.557,505.622-1462.382
		c475.882,45.475,387.044,321.363,597.22,579.499c136.234,167.321,398.252,30.442,496.442,176.652
		c98.189,146.211-17.198,563.11-57.675,706.23H408.536z"/>
	<g>
		<path style="fill:#40A87B;" d="M1848.736,1991.199c0,0,42.13-168.052,147.148-219.916s217.104,19.141,188.643,93.806
			c-24.542,64.382-125.459-14.782-203.978,16.349c-78.519,31.131-90.896,109.761-90.896,109.761H1848.736z"/>
		<path style="fill:none;stroke:#6ADB6A;stroke-width:4.7322;stroke-miterlimit:10;" d="M2164.226,1820.314
			c0,0-112.711-64.233-196.336-4.848c-83.625,59.386-110.089,175.733-110.089,175.733"/>
		
			<line style="fill:none;stroke:#6ADB6A;stroke-width:4.7322;stroke-miterlimit:10;" x1="2146.047" y1="1790.274" x2="2119.823" y2="1801.706"/>
		
			<line style="fill:none;stroke:#6ADB6A;stroke-width:4.7322;stroke-miterlimit:10;" x1="2108.173" y1="1765.777" x2="2055.942" y2="1790.274"/>
		
			<line style="fill:none;stroke:#6ADB6A;stroke-width:4.7322;stroke-miterlimit:10;" x1="2029.699" y1="1765.777" x2="2002.526" y2="1797.876"/>
		
			<line style="fill:none;stroke:#6ADB6A;stroke-width:4.7322;stroke-miterlimit:10;" x1="1978.192" y1="1787.289" x2="1965.976" y2="1816.85"/>
		
			<line style="fill:none;stroke:#6ADB6A;stroke-width:4.7322;stroke-miterlimit:10;" x1="2132.935" y1="1861.218" x2="2092.678" y2="1794.618"/>
		
			<line style="fill:none;stroke:#6ADB6A;stroke-width:4.7322;stroke-miterlimit:10;" x1="2061.816" y1="1851.674" x2="2024.894" y2="1792.377"/>
		
			<line style="fill:none;stroke:#6ADB6A;stroke-width:4.7322;stroke-miterlimit:10;" x1="1999.098" y1="1842.584" x2="1943.59" y2="1835.686"/>
		
			<line style="fill:none;stroke:#6ADB6A;stroke-width:4.7322;stroke-miterlimit:10;" x1="1934.477" y1="1876.216" x2="1902.66" y2="1886.662"/>
	</g>
	<g>
		<path style="fill:#6ADB6A;" d="M1798.985,1991.689c0,0-29.727-563.303,239.326-490.713s-209.877,376.184-209.469,490.713H1798.985
			z"/>
		<path style="fill:none;stroke:#40A87B;stroke-width:4.7322;stroke-miterlimit:10;" d="M1809.858,1991.689
			c0,0,9.394-294.307,201.184-439.832"/>
		
			<line style="fill:none;stroke:#40A87B;stroke-width:4.7322;stroke-miterlimit:10;" x1="1926.923" y1="1637.193" x2="1931.715" y2="1535.707"/>
		
			<line style="fill:none;stroke:#40A87B;stroke-width:4.7322;stroke-miterlimit:10;" x1="2077.396" y1="1595.142" x2="1947.763" y2="1612.038"/>
		
			<line style="fill:none;stroke:#40A87B;stroke-width:4.7322;stroke-miterlimit:10;" x1="2026.983" y1="1681.758" x2="1889.919" y2="1697.727"/>
		
			<line style="fill:none;stroke:#40A87B;stroke-width:4.7322;stroke-miterlimit:10;" x1="1958.45" y1="1767.593" x2="1852.585" y2="1782.554"/>
		
			<line style="fill:none;stroke:#40A87B;stroke-width:4.7322;stroke-miterlimit:10;" x1="1842.429" y1="1687.391" x2="1866.694" y2="1746.344"/>
		
			<line style="fill:none;stroke:#40A87B;stroke-width:4.7322;stroke-miterlimit:10;" x1="1882.301" y1="1591.71" x2="1902.988" y2="1674.71"/>
		
			<line style="fill:none;stroke:#40A87B;stroke-width:4.7322;stroke-miterlimit:10;" x1="1819.777" y1="1785.809" x2="1839.109" y2="1824.341"/>
		
			<line style="fill:none;stroke:#40A87B;stroke-width:4.7322;stroke-miterlimit:10;" x1="1902.988" y1="1847.164" x2="1827.127" y2="1871.082"/>
	</g>
	<g>
		<path style="fill:#40A87B;" d="M411.837,1991.35c0,0-29.194-116.454-101.967-152.393c-72.773-35.94-150.445,13.264-130.722,65.004
			c17.007,44.614,86.938-10.243,141.349,11.329s62.988,76.06,62.988,76.06H411.837z"/>
		<path style="fill:none;stroke:#6ADB6A;stroke-width:3.2792;stroke-miterlimit:10;" d="M193.215,1872.933
			c0,0,78.105-44.511,136.053-3.359c57.949,41.152,76.287,121.776,76.287,121.776"/>
		
			<line style="fill:none;stroke:#6ADB6A;stroke-width:3.2792;stroke-miterlimit:10;" x1="205.812" y1="1852.116" x2="223.984" y2="1860.038"/>
		
			<line style="fill:none;stroke:#6ADB6A;stroke-width:3.2792;stroke-miterlimit:10;" x1="232.057" y1="1835.141" x2="268.251" y2="1852.116"/>
		
			<line style="fill:none;stroke:#6ADB6A;stroke-width:3.2792;stroke-miterlimit:10;" x1="286.436" y1="1835.141" x2="305.266" y2="1857.384"/>
		
			<line style="fill:none;stroke:#6ADB6A;stroke-width:3.2792;stroke-miterlimit:10;" x1="322.129" y1="1850.048" x2="330.594" y2="1870.532"/>
		
			<line style="fill:none;stroke:#6ADB6A;stroke-width:3.2792;stroke-miterlimit:10;" x1="214.898" y1="1901.278" x2="242.794" y2="1855.127"/>
		
			<line style="fill:none;stroke:#6ADB6A;stroke-width:3.2792;stroke-miterlimit:10;" x1="264.181" y1="1894.664" x2="289.766" y2="1853.574"/>
		
			<line style="fill:none;stroke:#6ADB6A;stroke-width:3.2792;stroke-miterlimit:10;" x1="307.642" y1="1888.365" x2="346.106" y2="1883.585"/>
		
			<line style="fill:none;stroke:#6ADB6A;stroke-width:3.2792;stroke-miterlimit:10;" x1="352.422" y1="1911.671" x2="374.47" y2="1918.909"/>
	</g>
	<g>
		<path style="fill:#6ADB6A;" d="M446.312,1991.689c0,0,20.6-390.347-165.843-340.045
			c-186.443,50.302,145.436,260.681,145.154,340.045H446.312z"/>
		<path style="fill:none;stroke:#40A87B;stroke-width:3.2792;stroke-miterlimit:10;" d="M438.778,1991.689
			c0,0-6.51-203.943-139.413-304.786"/>
		
			<line style="fill:none;stroke:#40A87B;stroke-width:3.2792;stroke-miterlimit:10;" x1="357.656" y1="1746.037" x2="354.335" y2="1675.711"/>
		
			<line style="fill:none;stroke:#40A87B;stroke-width:3.2792;stroke-miterlimit:10;" x1="253.384" y1="1716.897" x2="343.215" y2="1728.606"/>
		
			<line style="fill:none;stroke:#40A87B;stroke-width:3.2792;stroke-miterlimit:10;" x1="288.319" y1="1776.919" x2="383.299" y2="1787.985"/>
		
			<line style="fill:none;stroke:#40A87B;stroke-width:3.2792;stroke-miterlimit:10;" x1="335.809" y1="1836.399" x2="409.17" y2="1846.767"/>
		
			<line style="fill:none;stroke:#40A87B;stroke-width:3.2792;stroke-miterlimit:10;" x1="416.207" y1="1780.823" x2="399.393" y2="1821.675"/>
		
			<line style="fill:none;stroke:#40A87B;stroke-width:3.2792;stroke-miterlimit:10;" x1="388.577" y1="1714.52" x2="374.242" y2="1772.035"/>
		
			<line style="fill:none;stroke:#40A87B;stroke-width:3.2792;stroke-miterlimit:10;" x1="431.904" y1="1849.022" x2="418.508" y2="1875.723"/>
		
			<line style="fill:none;stroke:#40A87B;stroke-width:3.2792;stroke-miterlimit:10;" x1="374.242" y1="1891.539" x2="426.811" y2="1908.113"/>
	</g>
	<g>
		<path style="fill:#98EB98;" d="M299.386,577.644v-5.433l31.368-16.976v8.299l-20.953,11.394l20.953,11.394v8.299L299.386,577.644z
			"/>
		<path style="fill:#98EB98;" d="M910.577,1028.626v-8.299l20.953-11.394l-20.953-11.394v-8.299l31.368,16.976v5.433
			L910.577,1028.626z"/>
		<rect x="342.388" y="568.519" style="fill:#98EB98;" width="124.746" height="12.816"/>
		<rect x="299.386" y="618.045" style="fill:#98EB98;" width="124.746" height="12.816"/>
		<rect x="325.958" y="652.546" style="fill:#98EB98;" width="124.746" height="12.816"/>
		<rect x="325.958" y="747.503" style="fill:#98EB98;" width="124.746" height="12.816"/>
		<rect x="325.958" y="776.876" style="fill:#98EB98;" width="124.746" height="12.816"/>
		<rect x="368.823" y="685.405" style="fill:#98EB98;" width="376.207" height="12.816"/>
		<rect x="368.823" y="808.085" style="fill:#98EB98;" width="502.58" height="12.816"/>
		<rect x="368.823" y="906.34" style="fill:#98EB98;" width="502.58" height="12.816"/>
		<rect x="416.092" y="1002.525" style="fill:#98EB98;" width="481.496" height="12.816"/>
		<rect x="368.823" y="939.725" style="fill:#98EB98;" width="107.646" height="12.816"/>
		<rect x="368.823" y="971.482" style="fill:#98EB98;" width="107.646" height="12.816"/>
		<rect x="368.823" y="839.45" style="fill:#98EB98;" width="502.58" height="12.816"/>
		<rect x="368.823" y="870.814" style="fill:#98EB98;" width="271.919" height="12.816"/>
		<rect x="368.823" y="714.94" style="fill:#98EB98;" width="115.358" height="12.816"/>
	</g>
	<path style="fill:#FFFFFF;" d="M1070.864,781.188c-9.831-14.045-26.492-22.912-45.084-21.848c-0.563,0.032-1.138,0.076-1.702,0.119
		c-25.341,2.269-45.411,23.221-46.618,48.637c-0.462,9.957,1.897,19.308,6.328,27.325c2.137,3.857,4.739,7.401,7.746,10.563l0,0.012
		c2.375,2.479,4.981,4.731,7.795,6.697c6.838,4.78,11.127,12.331,12.114,20.542l-2.374,0.035c-0.681,0.01-1.311,0.301-1.751,0.754
		c-0.081,0.083-0.15,0.178-0.231,0.274c-0.3,0.416-0.48,0.935-0.471,1.499c0.021,1.374,1.153,2.485,2.527,2.464
		c-0.681,0.01-1.311,0.302-1.751,0.755c-0.046,0.048-0.081,0.095-0.127,0.143c-0.369,0.452-0.584,1.019-0.575,1.63
		c0.02,1.374,1.153,2.485,2.527,2.464c-0.681,0.01-1.311,0.302-1.751,0.766c-0.07,0.072-0.139,0.155-0.208,0.238
		c-0.311,0.428-0.503,0.971-0.494,1.535c0.02,1.362,1.153,2.473,2.527,2.453c-0.681,0.01-1.311,0.302-1.751,0.766
		c-0.035,0.036-0.058,0.06-0.081,0.095c-0.393,0.441-0.631,1.031-0.621,1.677c0.021,1.374,1.153,2.473,2.527,2.453l2.572-0.038
		c0.032,0.612,0.085,1.22,0.18,1.818c0.342,2.076,1.069,4.018,2.095,5.76c0,0,0,0,0,0c0.193,0.329,0.399,0.65,0.613,0.964
		c0.107,0.157,0.222,0.307,0.334,0.46c0.15,0.204,0.303,0.406,0.462,0.603c0.116,0.144,0.234,0.287,0.355,0.427
		c0.192,0.223,0.391,0.439,0.595,0.651c0.095,0.099,0.185,0.201,0.282,0.298c0.295,0.293,0.602,0.573,0.917,0.844
		c0.11,0.094,0.224,0.182,0.336,0.274c0.234,0.19,0.473,0.375,0.717,0.553c0.124,0.09,0.248,0.18,0.375,0.267
		c0.289,0.199,0.585,0.388,0.887,0.569c0.075,0.045,0.146,0.094,0.222,0.137c0.373,0.215,0.756,0.413,1.146,0.6
		c0.121,0.058,0.244,0.11,0.367,0.165c0.293,0.131,0.589,0.255,0.891,0.37c0.133,0.051,0.265,0.102,0.4,0.149
		c0.378,0.133,0.761,0.255,1.15,0.361c0.045,0.012,0.088,0.028,0.133,0.04c0.432,0.114,0.873,0.207,1.318,0.286
		c0.13,0.023,0.262,0.041,0.393,0.062c0.337,0.052,0.676,0.094,1.019,0.126c0.136,0.013,0.272,0.027,0.409,0.036
		c0.464,0.032,0.931,0.05,1.405,0.044l2.807-0.042c4.64-0.069,8.816-2.011,11.801-5.098c2.453-2.515,4.108-5.794,4.605-9.443
		c0.038-0.314,0.066-0.632,0.087-0.951c0.021-0.285,0.031-0.572,0.038-0.859c0-0.004,0-0.008,0.001-0.012l2.337-0.035
		c0.681-0.01,1.311-0.302,1.751-0.754c0.451-0.465,0.724-1.08,0.714-1.773c-0.01-0.646-0.265-1.23-0.683-1.658
		c-0.454-0.51-1.128-0.817-1.857-0.806c0.681-0.01,1.311-0.301,1.751-0.754c0.451-0.465,0.724-1.091,0.714-1.773
		c-0.008-0.564-0.216-1.101-0.551-1.519c-0.467-0.58-1.189-0.957-1.988-0.945c0.681-0.01,1.311-0.302,1.751-0.766
		c0.451-0.453,0.724-1.092,0.714-1.773c-0.009-0.611-0.241-1.171-0.635-1.612c-0.466-0.522-1.152-0.852-1.904-0.841
		c0.681-0.01,1.311-0.302,1.751-0.766c0.452-0.453,0.724-1.08,0.714-1.773c-0.008-0.564-0.204-1.078-0.527-1.484
		c-0.467-0.604-1.202-0.981-2.012-0.969l-2.362,0.035c0.744-8.237,4.814-15.914,11.496-20.906
		c12.757-9.518,20.928-24.806,20.673-41.942C1079.966,799.179,1076.565,789.314,1070.864,781.188z"/>
	<g>
		<path style="fill:#BBDBF3;" d="M1337.685,1134.714V534.88c0-2.328,1.887-4.215,4.215-4.215h817.281
			c2.328,0,4.215,1.887,4.215,4.215v599.833H1337.685z"/>
		<rect x="1345.346" y="538.326" style="fill:#FFFFFF;" width="810.388" height="588.725"/>
		<rect x="1341.861" y="533.985" style="fill:#BBDBF3;" width="817.358" height="59.824"/>
		<g>
			
				<line style="fill:none;stroke:#FFFFFF;stroke-width:5.1185;stroke-linecap:round;stroke-linejoin:round;stroke-miterlimit:10;" x1="2104.508" y1="582.027" x2="2136.427" y2="550.108"/>
			
				<line style="fill:none;stroke:#FFFFFF;stroke-width:5.1185;stroke-linecap:round;stroke-linejoin:round;stroke-miterlimit:10;" x1="2136.427" y1="582.027" x2="2104.508" y2="550.108"/>
		</g>
		<rect x="1345.346" y="593.81" style="fill:#E5F0F8;" width="192.098" height="533.241"/>
		<rect x="1364.509" y="623.715" style="fill:#FFFFFF;" width="153.772" height="12.389"/>
		<rect x="1364.509" y="656.455" style="fill:#FFFFFF;" width="153.772" height="12.389"/>
		<rect x="1364.509" y="689.194" style="fill:#FFFFFF;" width="153.772" height="12.389"/>
		<rect x="1364.509" y="721.933" style="fill:#FFFFFF;" width="153.772" height="12.389"/>
		<rect x="1364.509" y="754.673" style="fill:#FFFFFF;" width="153.772" height="12.389"/>
		<rect x="1364.509" y="787.412" style="fill:#FFFFFF;" width="153.772" height="12.389"/>
		<rect x="1364.509" y="820.152" style="fill:#FFFFFF;" width="153.772" height="12.389"/>
		<g>
			
				<rect x="1587.253" y="896.122" transform="matrix(-1.836970e-16 1 -1 -1.836970e-16 2701.345 -662.6876)" style="fill:#E5F0F8;" width="189.527" height="246.413"/>
			<polygon style="fill:#FFFFFF;" points="1736.777,1016.495 1644.12,962.999 1644.12,1069.99 			"/>
			<rect x="1558.81" y="1103.776" style="fill:#FFFFFF;" width="246.413" height="10.316"/>
			<rect x="1558.81" y="1103.776" style="fill:#E5F0F8;" width="120.957" height="10.316"/>
			<path style="fill:#FFFFFF;" d="M1688.556,1114.092h-15.286c-2.837,0-5.158-2.321-5.158-5.158l0,0
				c0-2.837,2.321-5.158,5.158-5.158h15.286c2.837,0,5.158,2.321,5.158,5.158l0,0
				C1693.714,1111.771,1691.392,1114.092,1688.556,1114.092z"/>
		</g>
		<rect x="1364.509" y="852.891" style="fill:#FFFFFF;" width="153.772" height="12.389"/>
		<rect x="1364.509" y="885.631" style="fill:#FFFFFF;" width="153.772" height="12.389"/>
		<rect x="1364.509" y="918.37" style="fill:#FFFFFF;" width="153.772" height="12.389"/>
		<rect x="1364.509" y="951.11" style="fill:#FFFFFF;" width="153.772" height="12.389"/>
		<rect x="1364.509" y="983.849" style="fill:#FFFFFF;" width="153.772" height="12.389"/>
		<g>
			<rect x="1558.81" y="662.649" style="fill:#E5F0F8;" width="577.072" height="248.455"/>
			<g>
				<rect x="1575.466" y="683.457" style="fill:#FFFFFF;" width="161.992" height="206.838"/>
				<ellipse style="fill:#E5F0F8;" cx="1656.449" cy="771.206" rx="33.713" ry="43.189"/>
				<path style="fill:#E5F0F8;" d="M1728.874,890.296l-144.859,0c1.025-48.474,33.079-87.373,72.43-87.373
					C1695.835,802.922,1727.849,841.822,1728.874,890.296z"/>
			</g>
			<rect x="1759.21" y="683.458" style="fill:#FFFFFF;" width="127.764" height="10.705"/>
			<rect x="2094.174" y="683.458" style="fill:#FFFFFF;" width="27.512" height="10.705"/>
			<rect x="2058.373" y="683.458" style="fill:#FFFFFF;" width="27.512" height="10.705"/>
			<rect x="2022.572" y="683.458" style="fill:#FFFFFF;" width="27.512" height="10.705"/>
			<rect x="1759.21" y="727.948" style="fill:#FFFFFF;" width="203.466" height="10.705"/>
			<rect x="1759.21" y="705.703" style="fill:#FFFFFF;" width="161.925" height="10.705"/>
			<g>
				<rect x="1759.21" y="757.542" style="fill:#FFFFFF;" width="29.321" height="9.242"/>
				<rect x="1792.647" y="757.542" style="fill:#FFFFFF;" width="115.821" height="9.242"/>
				<rect x="1913.068" y="757.542" style="fill:#FFFFFF;" width="100.314" height="9.242"/>
				<rect x="2017.501" y="757.542" style="fill:#FFFFFF;" width="104.185" height="9.242"/>
				<rect x="1759.21" y="775.187" style="fill:#FFFFFF;" width="60.819" height="9.242"/>
				<rect x="1824.749" y="775.187" style="fill:#FFFFFF;" width="108.674" height="9.242"/>
				<rect x="1938.144" y="775.187" style="fill:#FFFFFF;" width="183.541" height="9.242"/>
				<rect x="1759.21" y="792.831" style="fill:#FFFFFF;" width="93.284" height="9.242"/>
				<rect x="1856.371" y="792.831" style="fill:#FFFFFF;" width="132.055" height="9.242"/>
				<rect x="1993.514" y="792.831" style="fill:#FFFFFF;" width="128.172" height="9.242"/>
				<rect x="1759.209" y="810.476" style="fill:#FFFFFF;" width="114.286" height="9.242"/>
				<rect x="1879.087" y="810.476" style="fill:#FFFFFF;" width="114.286" height="9.242"/>
				<rect x="1998.521" y="810.476" style="fill:#FFFFFF;" width="122.96" height="9.242"/>
				<rect x="1759.209" y="828.12" style="fill:#FFFFFF;" width="100.718" height="9.242"/>
				<rect x="1864.124" y="828.12" style="fill:#FFFFFF;" width="144.816" height="9.242"/>
				<rect x="2013.382" y="828.12" style="fill:#FFFFFF;" width="108.099" height="9.242"/>
				<rect x="1759.209" y="845.765" style="fill:#FFFFFF;" width="52.258" height="9.242"/>
				<rect x="1816.353" y="845.765" style="fill:#FFFFFF;" width="70.227" height="9.242"/>
				<rect x="1891.949" y="845.765" style="fill:#FFFFFF;" width="111.66" height="9.242"/>
				<rect x="2008.94" y="845.765" style="fill:#FFFFFF;" width="111.66" height="9.242"/>
				<rect x="1759.209" y="863.409" style="fill:#FFFFFF;" width="117.436" height="9.242"/>
				<rect x="1881.729" y="863.409" style="fill:#FFFFFF;" width="93.531" height="9.242"/>
				<rect x="1981.071" y="863.409" style="fill:#FFFFFF;" width="77.539" height="9.242"/>
				<rect x="2063.457" y="863.409" style="fill:#FFFFFF;" width="57.143" height="9.242"/>
				<rect x="1759.209" y="881.054" style="fill:#FFFFFF;" width="84.807" height="9.242"/>
			</g>
		</g>
		
			<rect x="1620.525" y="607.979" style="fill:none;stroke:#BBDBF3;stroke-width:2.4087;stroke-miterlimit:10;" width="392.515" height="31.472"/>
		
			<rect x="1950.289" y="607.979" style="fill:#BBDBF3;stroke:#BBDBF3;stroke-width:1.684;stroke-miterlimit:10;" width="62.75" height="31.472"/>
		
			<rect x="2073.133" y="607.979" style="fill:#BBDBF3;stroke:#BBDBF3;stroke-width:1.684;stroke-miterlimit:10;" width="62.75" height="31.472"/>
		<path style="fill:#FFFFFF;" d="M1970.817,630.113c4.518,2.525,10.089,1.281,13.207-2.649l16.771,9.371l1.624-2.906l-16.769-9.37
			c1.725-4.717-0.143-10.108-4.669-12.637c-5.02-2.805-11.377-1.023-14.182,3.996S1965.797,627.308,1970.817,630.113z
			 M1979.876,613.899c3.909,2.184,5.32,7.17,3.136,11.079c-2.197,3.931-7.17,5.32-11.079,3.136
			c-3.931-2.197-5.333-7.147-3.136-11.079C1970.982,613.126,1975.945,611.703,1979.876,613.899z"/>
		<g>
			<rect x="1824.948" y="1064.262" style="fill:#E5F0F8;" width="310.936" height="49.83"/>
			<polygon style="fill:#FFFFFF;" points="1874.494,1089.177 1842.58,1070.752 1842.58,1107.602 			"/>
			
				<line style="fill:none;stroke:#FFFFFF;stroke-width:2.0269;stroke-miterlimit:10;" x1="1888.716" y1="1089.177" x2="2115.548" y2="1089.177"/>
			<rect x="1888.716" y="1080.796" style="fill:#FFFFFF;" width="4.19" height="16.762"/>
		</g>
		<g>
			<rect x="1824.948" y="994.414" style="fill:#E5F0F8;" width="310.936" height="49.83"/>
			<polygon style="fill:#FFFFFF;" points="1874.494,1019.329 1842.58,1000.904 1842.58,1037.754 			"/>
			
				<line style="fill:none;stroke:#FFFFFF;stroke-width:2.0269;stroke-miterlimit:10;" x1="1888.716" y1="1019.329" x2="2115.548" y2="1019.329"/>
			<rect x="1888.716" y="1010.948" style="fill:#FFFFFF;" width="4.19" height="16.762"/>
		</g>
		<g>
			<rect x="1824.948" y="924.565" style="fill:#E5F0F8;" width="310.936" height="49.83"/>
			<polygon style="fill:#FFFFFF;" points="1874.494,949.48 1842.58,931.055 1842.58,967.906 			"/>
			
				<line style="fill:none;stroke:#FFFFFF;stroke-width:2.0269;stroke-miterlimit:10;" x1="1888.716" y1="949.48" x2="2115.548" y2="949.48"/>
			<rect x="1888.716" y="941.099" style="fill:#FFFFFF;" width="4.19" height="16.762"/>
		</g>
	</g>
	<path style="fill:#FFFFFF;" d="M1530,1869.994c-7.437-10.715-15.284-13.709-21.73-13.916c-1.366-0.044-2.746-0.272-4.08-0.61
		c-5.208-1.319-9.829-4.333-13.378-8.366l-83.955-95.415c-11.059-13.961-2.232-24.588-11.325-37.011
		c-6.747-9.219-21.883-10.976-28.301-11.358c-0.978-0.058-1.458,1.166-0.694,1.778c3.16,2.531,8.84,5.552,12.858,8.358
		c5.824,4.066,6.616,18.024-5.392,25.731c-9.748,6.256-19.827-4.72-24.168-9.04c-0.683-0.68-1.838-0.2-1.853,0.764
		c-0.043,2.756,0.746,7.563,4.805,13.411c7.437,10.715,16.714,13.115,23.16,13.322c2.732,0.088,5.523,1.17,7.888,2.437
		c3.177,1.702,5.974,4.032,8.355,6.738l86.595,98.415c1.831,2.08,3.174,4.556,3.858,7.241c2.359,9.248-1.993,17.018,4.703,26.166
		c6.747,9.219,23.222,11.381,29.64,11.763c0.978,0.058,1.458-1.166,0.694-1.778c-3.16-2.531-10.737-7.406-14.756-10.211
		c-5.824-4.066-7.77-16.549,4.239-24.256c9.748-6.256,21.453,6.278,25.794,10.598c0.683,0.68,1.838,0.2,1.853-0.764
		C1534.853,1881.234,1534.058,1875.842,1530,1869.994z"/>
	<g>
		
			<rect x="396.678" y="1182.052" transform="matrix(-1.836970e-16 1 -1 -1.836970e-16 2261.5359 780.6669)" style="fill:#BBDBF3;" width="687.514" height="678.098"/>
		<rect x="408.444" y="1184.299" style="fill:#FFFFFF;" width="663.986" height="673.605"/>
		<rect x="424.873" y="1213.271" style="fill:#E5F0F8;" width="58.535" height="9.104"/>
		<polygon style="fill:#E5F0F8;" points="631.204,1236.386 553.777,1236.386 408.444,1236.386 408.444,1267.364 1072.43,1267.364 
			1072.43,1236.386 		"/>
		<rect x="496.877" y="1213.271" style="fill:#E5F0F8;" width="58.535" height="9.104"/>
		<rect x="568.881" y="1213.271" style="fill:#E5F0F8;" width="58.535" height="9.104"/>
		<rect x="424.873" y="1248.682" style="fill:#FFFFFF;" width="74.214" height="6.148"/>
		<rect x="516.164" y="1248.682" style="fill:#FFFFFF;" width="74.214" height="6.148"/>
		<rect x="607.455" y="1248.682" style="fill:#FFFFFF;" width="74.214" height="6.148"/>
		<rect x="698.746" y="1248.682" style="fill:#FFFFFF;" width="74.215" height="6.148"/>
		
			<rect x="865.477" y="1202.691" style="fill:none;stroke:#E5F0F8;stroke-width:2.7505;stroke-miterlimit:10;" width="85.077" height="27.85"/>
		<rect x="962.362" y="1202.691" style="fill:#E5F0F8;" width="85.077" height="27.85"/>
		<g>
			
				<rect x="451.919" y="1266.017" transform="matrix(-1.836970e-16 1 -1 -1.836970e-16 1883.6604 832.8395)" style="fill:#E5F0F8;" width="146.982" height="184.466"/>
			<rect x="440.189" y="1292.171" style="fill:#FFFFFF;" width="170.443" height="132.158"/>
			<polygon style="fill:#E5F0F8;" points="440.189,1424.329 488.375,1365.837 522.226,1407.749 569.988,1327.15 610.633,1424.329 
							"/>
			
				<ellipse transform="matrix(0.6204 -0.7843 0.7843 0.6204 -838.9493 914.7293)" style="fill:#E5F0F8;" cx="525.411" cy="1323.972" rx="8.626" ry="8.626"/>
		</g>
		<g>
			
				<rect x="666.817" y="1266.017" transform="matrix(-1.836970e-16 1 -1 -1.836970e-16 2098.5583 617.9417)" style="fill:#E5F0F8;" width="146.982" height="184.466"/>
			<rect x="655.087" y="1292.171" style="fill:#FFFFFF;" width="170.443" height="132.158"/>
			<polygon style="fill:#E5F0F8;" points="655.087,1424.329 703.273,1365.837 737.124,1407.749 784.886,1327.15 825.53,1424.329 			
				"/>
			
				<ellipse transform="matrix(0.2306 -0.973 0.973 0.2306 -718.6978 1739.0127)" style="fill:#E5F0F8;" cx="740.309" cy="1323.972" rx="8.626" ry="8.626"/>
		</g>
		<g>
			
				<rect x="881.715" y="1266.017" transform="matrix(-1.836970e-16 1 -1 -1.836970e-16 2313.4561 403.0438)" style="fill:#E5F0F8;" width="146.982" height="184.466"/>
			<rect x="869.985" y="1292.171" style="fill:#FFFFFF;" width="170.443" height="132.158"/>
			<polygon style="fill:#E5F0F8;" points="869.985,1424.329 918.171,1365.837 952.022,1407.749 999.784,1327.15 1040.428,1424.329 
							"/>
			
				<ellipse transform="matrix(0.6248 -0.7808 0.7808 0.6248 -675.3445 1242.5793)" style="fill:#E5F0F8;" cx="955.207" cy="1323.972" rx="8.626" ry="8.626"/>
		</g>
		<rect x="449.684" y="1449.237" style="fill:#E5F0F8;" width="151.453" height="10.197"/>
		<rect x="443.15" y="1468.224" style="fill:#E5F0F8;" width="164.521" height="10.197"/>
		<rect x="433.178" y="1499.349" style="fill:#E5F0F8;" width="184.466" height="7.452"/>
		<rect x="433.178" y="1517.826" style="fill:#E5F0F8;" width="184.466" height="7.452"/>
		<rect x="433.178" y="1536.304" style="fill:#E5F0F8;" width="184.466" height="7.452"/>
		<rect x="433.178" y="1554.781" style="fill:#E5F0F8;" width="184.466" height="7.452"/>
		<rect x="433.178" y="1573.259" style="fill:#E5F0F8;" width="184.466" height="7.452"/>
		<rect x="433.178" y="1591.736" style="fill:#E5F0F8;" width="184.466" height="7.452"/>
		<rect x="433.178" y="1610.214" style="fill:#E5F0F8;" width="184.466" height="7.452"/>
		<rect x="433.178" y="1628.691" style="fill:#E5F0F8;" width="184.466" height="7.452"/>
		<rect x="433.178" y="1647.169" style="fill:#E5F0F8;" width="184.466" height="7.452"/>
		<rect x="433.178" y="1665.646" style="fill:#E5F0F8;" width="184.466" height="7.452"/>
		<rect x="433.178" y="1682.593" style="fill:#E5F0F8;" width="75.954" height="7.452"/>
		<rect x="879.48" y="1449.237" style="fill:#E5F0F8;" width="151.453" height="10.197"/>
		<rect x="872.945" y="1468.224" style="fill:#E5F0F8;" width="164.521" height="10.197"/>
		<rect x="862.973" y="1499.349" style="fill:#E5F0F8;" width="184.466" height="7.452"/>
		<rect x="862.973" y="1517.826" style="fill:#E5F0F8;" width="184.466" height="7.452"/>
		<rect x="862.973" y="1536.304" style="fill:#E5F0F8;" width="184.466" height="7.452"/>
		<rect x="862.973" y="1554.781" style="fill:#E5F0F8;" width="184.466" height="7.452"/>
		<rect x="862.973" y="1573.259" style="fill:#E5F0F8;" width="184.466" height="7.452"/>
		<rect x="862.973" y="1591.736" style="fill:#E5F0F8;" width="184.466" height="7.452"/>
		<rect x="862.973" y="1610.214" style="fill:#E5F0F8;" width="184.466" height="7.452"/>
		<rect x="862.973" y="1628.691" style="fill:#E5F0F8;" width="184.466" height="7.452"/>
		<rect x="862.973" y="1647.169" style="fill:#E5F0F8;" width="184.466" height="7.452"/>
		<rect x="862.973" y="1665.646" style="fill:#E5F0F8;" width="184.466" height="7.452"/>
		<rect x="862.973" y="1682.593" style="fill:#E5F0F8;" width="75.954" height="7.452"/>
		<rect x="664.582" y="1449.237" style="fill:#E5F0F8;" width="151.453" height="10.197"/>
		<rect x="658.048" y="1468.224" style="fill:#E5F0F8;" width="164.521" height="10.197"/>
		<rect x="648.075" y="1499.349" style="fill:#E5F0F8;" width="184.466" height="7.452"/>
		<rect x="648.075" y="1517.826" style="fill:#E5F0F8;" width="184.466" height="7.452"/>
		<rect x="648.075" y="1536.304" style="fill:#E5F0F8;" width="184.466" height="7.452"/>
		<rect x="648.075" y="1554.781" style="fill:#E5F0F8;" width="184.466" height="7.452"/>
		<rect x="648.075" y="1573.259" style="fill:#E5F0F8;" width="184.466" height="7.452"/>
		<rect x="648.075" y="1591.736" style="fill:#E5F0F8;" width="184.466" height="7.452"/>
		<rect x="648.075" y="1610.214" style="fill:#E5F0F8;" width="184.466" height="7.452"/>
		<rect x="648.075" y="1628.691" style="fill:#E5F0F8;" width="184.466" height="7.452"/>
		<rect x="648.075" y="1647.169" style="fill:#E5F0F8;" width="184.466" height="7.452"/>
		<rect x="648.075" y="1665.646" style="fill:#E5F0F8;" width="184.466" height="7.452"/>
		<rect x="648.075" y="1682.593" style="fill:#E5F0F8;" width="75.954" height="7.452"/>
		<rect x="433.178" y="1711.56" style="fill:#E5F0F8;" width="184.466" height="43.829"/>
		<polygon style="fill:#FFFFFF;" points="608.029,1733.474 579.824,1717.19 579.824,1749.758 		"/>
		<g>
			<rect x="439.23" y="1722.687" style="fill:#FFFFFF;" width="109.041" height="7.452"/>
			<rect x="439.23" y="1736.809" style="fill:#FFFFFF;" width="87.05" height="7.452"/>
		</g>
		<rect x="647.807" y="1711.56" style="fill:#E5F0F8;" width="184.466" height="43.829"/>
		<polygon style="fill:#FFFFFF;" points="822.658,1733.474 794.453,1717.19 794.453,1749.758 		"/>
		<g>
			<rect x="653.859" y="1722.687" style="fill:#FFFFFF;" width="109.041" height="7.452"/>
			<rect x="653.859" y="1736.809" style="fill:#FFFFFF;" width="87.05" height="7.452"/>
		</g>
		<rect x="862.436" y="1711.56" style="fill:#E5F0F8;" width="184.466" height="43.829"/>
		<polygon style="fill:#FFFFFF;" points="1037.288,1733.474 1009.083,1717.19 1009.083,1749.758 		"/>
		<g>
			<rect x="868.489" y="1722.687" style="fill:#FFFFFF;" width="109.041" height="7.452"/>
			<rect x="868.489" y="1736.809" style="fill:#FFFFFF;" width="87.05" height="7.452"/>
		</g>
		<rect x="408.444" y="1776.641" style="fill:#E5F0F8;" width="663.986" height="81.262"/>
		<g>
			<rect x="568.718" y="1790.317" style="fill:#FFFFFF;" width="98.684" height="4.281"/>
			<rect x="568.718" y="1798.589" style="fill:#FFFFFF;" width="98.684" height="4.281"/>
			<rect x="568.718" y="1806.86" style="fill:#FFFFFF;" width="98.684" height="4.281"/>
			<rect x="568.718" y="1815.132" style="fill:#FFFFFF;" width="98.684" height="4.281"/>
			<rect x="568.718" y="1823.404" style="fill:#FFFFFF;" width="98.684" height="4.281"/>
			<rect x="568.718" y="1831.675" style="fill:#FFFFFF;" width="98.684" height="4.281"/>
			<rect x="568.718" y="1839.947" style="fill:#FFFFFF;" width="98.684" height="4.281"/>
		</g>
		<g>
			
				<rect x="813.471" y="1790.317" transform="matrix(-1 -1.224647e-16 1.224647e-16 -1 1725.6262 3584.915)" style="fill:#FFFFFF;" width="98.684" height="4.281"/>
			
				<rect x="813.471" y="1798.589" transform="matrix(-1 -1.224647e-16 1.224647e-16 -1 1725.6262 3601.4585)" style="fill:#FFFFFF;" width="98.684" height="4.281"/>
			
				<rect x="813.471" y="1806.86" transform="matrix(-1 -1.224647e-16 1.224647e-16 -1 1725.6262 3618.0017)" style="fill:#FFFFFF;" width="98.684" height="4.281"/>
			
				<rect x="813.471" y="1815.132" transform="matrix(-1 -1.224647e-16 1.224647e-16 -1 1725.6262 3634.5449)" style="fill:#FFFFFF;" width="98.684" height="4.281"/>
			
				<rect x="813.471" y="1823.404" transform="matrix(-1 -1.224647e-16 1.224647e-16 -1 1725.6262 3651.0884)" style="fill:#FFFFFF;" width="98.684" height="4.281"/>
			
				<rect x="813.471" y="1831.675" transform="matrix(-1 -1.224647e-16 1.224647e-16 -1 1725.6262 3667.6316)" style="fill:#FFFFFF;" width="98.684" height="4.281"/>
			
				<rect x="813.471" y="1839.947" transform="matrix(-1 -1.224647e-16 1.224647e-16 -1 1725.6262 3684.1748)" style="fill:#FFFFFF;" width="98.684" height="4.281"/>
		</g>
	</g>
	<g>
		<path style="fill:#FFFFFF;" d="M397.729,1063.869c-3.863-2.707-8.107-4.688-12.529-5.943c-0.788,4.766-5.051,8.278-9.987,8.026
			c-4.936-0.252-8.808-4.167-9.107-8.988c-4.515,0.788-8.938,2.326-13.057,4.625c2.806,3.932,2.289,9.422-1.384,12.739
			c-3.674,3.317-9.188,3.272-12.813,0.08c-2.707,3.863-4.687,8.107-5.931,12.518c4.766,0.788,8.266,5.039,8.014,9.974
			c-0.252,4.936-4.179,8.819-9.001,9.118c0.799,4.527,2.337,8.951,4.637,13.069c3.92-2.819,9.423-2.313,12.751,1.373
			c3.317,3.673,3.271,9.211,0.068,12.824c3.863,2.707,8.107,4.687,12.518,5.931c0.788-4.766,5.051-8.278,9.987-8.026
			c4.936,0.252,8.808,4.167,9.107,8.989c4.515-0.788,8.938-2.326,13.057-4.625c-2.806-3.932-2.289-9.422,1.384-12.739
			c3.674-3.317,9.188-3.272,12.813-0.08c2.707-3.863,4.688-8.107,5.931-12.518c-4.766-0.788-8.266-5.039-8.014-9.974
			c0.252-4.936,4.179-8.819,9.001-9.118c-0.788-4.515-2.326-8.938-4.625-13.057c-3.944,2.818-9.434,2.301-12.751-1.373
			C394.469,1073.008,394.514,1067.493,397.729,1063.869z M388.737,1084.873c7.563,8.377,6.915,21.307-1.474,28.881
			s-21.318,6.903-28.881-1.474c-7.574-8.389-6.926-21.319,1.463-28.894C368.234,1075.812,381.163,1076.484,388.737,1084.873z"/>
		<path style="fill:#FFFFFF;" d="M355.369,1191.718c-5.541,11.187-19.105,15.779-30.309,10.229
			c-11.204-5.549-15.771-19.122-10.229-30.309c5.549-11.204,19.114-15.795,30.317-10.246
			C356.351,1166.941,360.918,1180.514,355.369,1191.718z M380.632,1192.426c1.213-5.075,1.525-10.246,1.018-15.306
			c-5.223,1.128-10.569-1.83-12.317-7.009c-1.748-5.18,0.704-10.755,5.543-13.023c-2.646-4.324-6.028-8.249-10.068-11.551
			c-2.903,4.486-8.761,6.187-13.667,3.757c-4.906-2.43-7.102-8.121-5.293-13.148c-5.075-1.214-10.246-1.525-15.289-1.01
			c1.128,5.223-1.822,10.553-7.001,12.301c-5.18,1.748-10.772-0.712-13.04-5.551c-4.333,2.663-8.257,6.044-11.559,10.085
			c4.494,2.886,6.211,8.753,3.773,13.675c-2.43,4.906-8.146,7.111-13.165,5.285c-1.214,5.075-1.525,10.246-1.01,15.289
			c5.223-1.128,10.569,1.83,12.317,7.009c1.748,5.18-0.704,10.755-5.543,13.023c2.647,4.324,6.028,8.249,10.068,11.55
			c2.903-4.486,8.761-6.187,13.667-3.757c4.906,2.43,7.102,8.121,5.293,13.148c5.075,1.213,10.246,1.525,15.289,1.01
			c-1.128-5.223,1.822-10.553,7.001-12.301c5.18-1.748,10.772,0.712,13.04,5.551c4.324-2.646,8.249-6.027,11.55-10.068
			c-4.502-2.911-6.203-8.769-3.773-13.675C369.905,1192.788,375.596,1190.592,380.632,1192.426z"/>
	</g>
	<g>
		<path style="fill:#BBDBF3;" d="M730.113,1328.561h1088.463c15.986,0,29.31-14.867,30.186-33.974
			c3.3-72.006,21.982-170.217-80.59-215.687c-103.202-45.749-207.468,5.837-207.468,5.837s-15.851-244.251-256.215-243.823
			c-221.292,0.394-320.438,225.218-320.438,225.218s-193.172-72.995-282.208,213.265
			C694.45,1303.168,708.925,1328.561,730.113,1328.561z"/>
		<path style="fill:#BBDBF3;" d="M920.202,1418.05H869.09c-13.752,0-24.901-11.148-24.901-24.901v-91.739h100.913v91.739
			C945.103,1406.902,933.955,1418.05,920.202,1418.05z"/>
		<path style="fill:#BBDBF3;" d="M1629.028,1418.05h51.112c13.752,0,24.901-11.148,24.901-24.901v-91.739h-100.913v91.739
			C1604.127,1406.902,1615.275,1418.05,1629.028,1418.05z"/>
		<path style="fill:#BBDBF3;" d="M1300.171,1418.05h-51.112c-13.752,0-24.901-11.148-24.901-24.901v-91.739h100.913v91.739
			C1325.072,1406.902,1313.923,1418.05,1300.171,1418.05z"/>
		<g>
			<path style="fill:#FFFFFF;" d="M1146.022,1023.912h26.337l91.733,214.337h-33.906l-21.497-52.98H1106.67l-21.197,52.98h-33.906
				L1146.022,1023.912z M1198.09,1159.84l-39.958-98.391h-0.606l-40.564,98.391H1198.09z"/>
			<path style="fill:#FFFFFF;" d="M1291.941,1023.912h75.382c13.723,0,25.023,1.868,33.906,5.599
				c8.877,3.737,15.892,8.478,21.038,14.23c5.146,5.752,8.73,12.212,10.752,19.377c2.015,7.164,3.023,14.077,3.023,20.735
				c0,6.661-1.008,13.577-3.023,20.738c-2.021,7.168-5.605,13.625-10.752,19.376c-5.146,5.752-12.161,10.497-21.038,14.227
				c-8.883,3.737-20.183,5.602-33.906,5.602H1321v94.453h-29.06V1023.912z M1321,1118.364h38.147c5.65,0,11.249-0.453,16.803-1.361
				c5.548-0.909,10.49-2.573,14.833-4.996c4.336-2.42,7.818-5.902,10.445-10.442c2.621-4.541,3.935-10.446,3.935-17.712
				c0-7.263-1.314-13.168-3.935-17.709c-2.627-4.541-6.109-8.022-10.445-10.446c-4.343-2.42-9.285-4.084-14.833-4.993
				c-5.554-0.909-11.153-1.365-16.803-1.365H1321V1118.364z"/>
			<path style="fill:#FFFFFF;" d="M1471.459,1023.912h29.06v214.337h-29.06V1023.912z"/>
		</g>
		
			<line style="fill:none;stroke:#BBDBF3;stroke-width:19.7272;stroke-linecap:round;stroke-miterlimit:10;" x1="1654.583" y1="1359.73" x2="1654.583" y2="1998.817"/>
		
			<line style="fill:none;stroke:#BBDBF3;stroke-width:19.7272;stroke-linecap:round;stroke-miterlimit:10;" x1="1274.615" y1="1359.73" x2="1274.615" y2="1998.817"/>
		
			<line style="fill:none;stroke:#BBDBF3;stroke-width:19.7272;stroke-linecap:round;stroke-miterlimit:10;" x1="894.646" y1="1359.73" x2="894.646" y2="1998.817"/>
	</g>
	<g>
		<path style="fill:#F74242;" d="M1539.479,1480.752L1539.479,1480.752c12.875,6.929,29.079,2.065,36.008-10.81l52.086-96.777
			c6.929-12.875,2.065-29.079-10.81-36.008h0c-12.875-6.929-29.078-2.065-36.008,10.81l-52.086,96.777
			C1521.739,1457.62,1526.604,1473.823,1539.479,1480.752z"/>
		<path style="fill:#FDAE97;" d="M1576.665,1462.972c1.402-14.625-8.014-27.603-20.922-28.84l-112.68,4.172
			c-3.787-0.687-8.096-1.635-11.567-2.854c-8.071-2.835-30.901-7.951-31.613-4.658c-0.712,3.293,14.219,9.97,12.786,11.107
			c-1.432,1.137-13.529-1.202-18.608-2.609c-5.078-1.407-15.479-6.177-17.906-4.279c-2.427,1.898-0.646,6.072-0.646,6.072
			s-3.746-2.306-4.734,0.309c-0.988,2.616,3.978,7.625,3.978,7.625s-1.953-1.496-2.326,1.66c-0.374,3.155,9.573,8.071,9.573,8.071
			s-2.217-0.203-2.173,2.229c0.043,2.432,13.822,7.445,24.513,7.789c9.544,0.307,32.301-1.481,37.079-1.869l109.229,20.415
			C1563.554,1488.55,1575.263,1477.597,1576.665,1462.972z"/>
		<path style="fill:#322A28;" d="M1672.342,1255.251c0,0,13.668,10.277,10.365,31.034c-3.303,20.757-5.148,31.99,7.987,33.256
			s39.59-6.189,41.465,11.438c1.875,17.627-10.706,29.17,7.771,32.684s20.661,27.405,20.661,27.405s-66.763,40.691-129.096,1.519
			c-62.333-39.172,5.076-64.577,5.076-64.577L1672.342,1255.251z"/>
		<path style="fill:#0775EF;" d="M1657.857,1512.952c17.405,22.789,23.963,70.034,12.865,120.93
			c-11.098,50.895-14.847,84.353-14.847,84.353c-2.893,23.56-24.336,40.313-47.896,37.421c-23.56-2.893-40.313-24.337-37.421-47.896
			l17.696-194.808H1657.857z"/>
		<path style="fill:#E5F0F8;" d="M1661.695,1326.131l46.523,21.071c0,0-10.344,119.764-11.413,132.865
			c-1.069,13.101,2.941,32.886,2.941,32.886h-111.491c0,0,1.337-64.167-6.149-82.081c-5.072-12.135-8.556-19.518-5.615-33.42
			c2.941-13.903,24.46-38.481,20.985-62.544l24.27-7.773L1661.695,1326.131z"/>
		<path style="fill:#F74242;" d="M1630.532,1490.153L1630.532,1490.153c12.662,7.311,29.004,2.932,36.315-9.73l54.952-95.179
			c7.311-12.662,2.932-29.004-9.731-36.314l0,0c-12.662-7.311-29.004-2.932-36.315,9.73l-54.952,95.179
			C1613.491,1466.501,1617.87,1482.843,1630.532,1490.153z"/>
		<path style="fill:#332B27;" d="M1613.873,1255.621c0,0-6.938-15.312,8.08-20.623L1613.873,1255.621z"/>
		<path style="fill:#FDAE97;" d="M1661.891,1326.123l-0.031,0.031c-0.5,0.875-8.939,15.096-24.91,13.908
			c-14.127-1.063-15.19-12.939-15.19-12.939v-54.101h34.38L1661.891,1326.123z"/>
		<polygon style="fill:#E89780;" points="1621.761,1320.962 1645.747,1294.879 1621.746,1303.895 		"/>
		<path style="fill:#FDAE97;" d="M1644.996,1298.358c-10.944,7.048-24.164,7.56-32.349,2.511
			c-8.192-5.019-7.364-17.359-5.295-25.255c0.007-0.031,0.007-0.031,0.014-0.061c0.432-1.633,1.046-3.929,1.729-6.531
			c2.651-10.199,6.569-25.303,6.569-25.303c1.66-7.965,23.555-26.6,45.857-4.303
			C1683.817,1261.744,1655.941,1291.31,1644.996,1298.358z"/>
		<path style="fill:#322A28;" d="M1616.255,1240.502c0,0,0.665,9.441,14.155,15.235c13.49,5.794,26.438,14.957,25.405,28.979
			c-1.034,14.022,4.062,21.709,4.062,21.709s1.285-17.474,9.479-32.552c3.178-5.849,5.685-18.022-0.377-28.193
			C1659.415,1229.63,1635.899,1218.077,1616.255,1240.502z"/>
		<path style="fill:#FDAE97;" d="M1653.431,1281.805c-2.682,4.321-3.374,7.346,0.018,9.452c3.392,2.105,8.978,1.355,11.66-2.965
			s2.106-9.53-1.286-11.635C1660.431,1274.55,1656.113,1277.484,1653.431,1281.805z"/>
		
			<path style="fill:none;stroke:#E89780;stroke-width:0.6316;stroke-linecap:round;stroke-linejoin:round;stroke-miterlimit:10;" d="
			M1661.009,1284.649c-2.826-1.241-5.194,0.066-5.194,0.066c1.726-4.876,7.568-3.163,7.568-3.163"/>
		<path style="fill:#332B27;" d="M1633.232,1269.729c-0.451,1.912-1.82,3.226-3.057,2.934c-1.237-0.292-1.874-2.078-1.423-3.991
			c0.451-1.912,1.819-3.226,3.057-2.934C1633.046,1266.03,1633.683,1267.817,1633.232,1269.729z"/>
		<path style="fill:#332B27;" d="M1617.245,1264.39c-0.451,1.912-1.82,3.226-3.057,2.934c-1.237-0.292-1.874-2.078-1.423-3.991
			c0.451-1.912,1.82-3.226,3.057-2.934C1617.059,1260.691,1617.696,1262.478,1617.245,1264.39z"/>
		<path style="fill:#0775EF;" d="M1556.211,1893.809h87.535l12.83-175.879l0.332-5.081c0-24.132-19.883-43.583-44.181-42.853
			c-21.908,0.631-40.264,18.456-41.559,40.364L1556.211,1893.809z"/>
		<path style="fill:none;stroke:#332B27;stroke-width:0.9376;stroke-miterlimit:10;" d="M1638.494,1266.914
			c0,0-2.714-5.671-7.595-5.003"/>
		<path style="fill:none;stroke:#332B27;stroke-width:0.9376;stroke-miterlimit:10;" d="M1618.387,1258.057
			c0,0-2.666-1.178-6.347,1.141"/>
		<path style="fill:#088CFC;" d="M1666.338,1893.809h94.168l-18.52-183.173l-0.067-0.797c-1.548-22.272-20.387-39.864-43.365-39.864
			c-24.021,0-43.466,19.185-43.466,42.884c0,1.328,0.067,2.622,0.202,3.884L1666.338,1893.809z"/>
		<path style="fill:none;stroke:#332B27;stroke-width:0.9376;stroke-miterlimit:10;" d="M1622.957,1266.027
			c0,0-2.455,9.423-8.288,9.27c0,0,1.389,2.027,3.449,3.213"/>
		<path style="fill:#088CFC;" d="M1699.745,1512.952c22.085,18.29,37.161,57.315,37.796,109.403
			c0.635,52.088,4.509,85.531,4.509,85.531c2.481,23.606-14.644,44.755-38.251,47.236c-23.606,2.481-44.755-14.644-47.236-38.251
			l-33.354-203.919H1699.745z"/>
		<path style="fill:#F74242;" d="M1665.081,1327.665c0,0-27.294,36.382-32.534,74.793c-5.241,38.411,11.707,81.114,16.267,122.118
			s27.374,209.957,27.374,209.957h75.901c0,0,3.787-112.729-9.798-158.733s-34.072-228.598-34.072-228.598L1665.081,1327.665z"/>
		<path style="fill:none;stroke:#332B27;stroke-width:0.9376;stroke-miterlimit:10;" d="M1615.314,1286.179
			c0,0,5.564,4.062,11.615-1.701"/>
		<path style="fill:#E89780;" d="M1641.609,1278.065c0.137,2.043-2.999,3.917-7.005,4.186c-4.006,0.269-7.364-1.169-7.501-3.212
			c-0.137-2.043,2.999-3.917,7.005-4.186C1638.113,1274.584,1641.472,1276.022,1641.609,1278.065z"/>
		<path style="fill:#E89780;" d="M1611.563,1274.417c-0.603,1.113-2.225,1.485-4.197,1.136c0.432-1.633,1.046-3.929,1.729-6.531
			C1611.276,1270.86,1612.357,1273.026,1611.563,1274.417z"/>
		<path style="fill:#322A28;" d="M1662.33,1223.75c-6.608,4.83-6.11,16.758,1.114,26.64c7.224,9.883,18.437,13.979,25.045,9.149
			c6.608-4.83,6.11-16.757-1.114-26.64S1668.938,1218.92,1662.33,1223.75z"/>
		<path style="fill:none;stroke:#FFFFFF;stroke-width:0.8298;stroke-miterlimit:10;" d="M1651.899,1291.313
			c-0.397,1.761,0.709,3.511,2.47,3.908c1.761,0.397,3.511-0.709,3.908-2.47c0.397-1.761-0.709-3.511-2.47-3.908
			C1654.046,1288.446,1652.296,1289.552,1651.899,1291.313z"/>
		<polygon style="fill:#FDAE97;" points="1668.02,1988.592 1747.021,1988.592 1746.656,1980.957 1745.461,1956.825 
			1745.895,1893.809 1688.658,1893.809 1703.238,1956.825 		"/>
		<polygon style="fill:#FDAE97;" points="1533.85,1988.592 1617.245,1988.592 1617.367,1980.957 1618.926,1956.825 
			1625.528,1893.809 1567.597,1893.809 1569.068,1956.825 1542.314,1980.957 		"/>
		<path style="fill:#322A28;" d="M1747.028,1988.593h-79.005c0.175-3.076,0.747-6.063,1.713-8.876
			c4.526-13.358,17.136-22.893,31.901-22.893h43.808l1.186,22.893l0.044,1.23L1747.028,1988.593z"/>
		<path style="fill:#322A28;" d="M1618.941,1956.824l-1.339,22.893l-0.22,1.23l-0.154,7.646h-83.399l0.351-2.109
			c0.396-2.373,0.967-4.614,1.802-6.767c2.109-5.712,5.667-10.634,10.193-14.457c6.196-5.273,14.237-8.436,22.894-8.436H1618.941z"
			/>
		
			<line style="fill:none;stroke:#FFFFFF;stroke-width:0.8298;stroke-miterlimit:10;" x1="1700.487" y1="1966.191" x2="1686.221" y2="1966.191"/>
		
			<line style="fill:none;stroke:#FFFFFF;stroke-width:0.8298;stroke-miterlimit:10;" x1="1695.956" y1="1971.73" x2="1681.69" y2="1971.73"/>
		
			<line style="fill:none;stroke:#FFFFFF;stroke-width:0.8298;stroke-miterlimit:10;" x1="1563.659" y1="1966.191" x2="1549.393" y2="1966.191"/>
		
			<line style="fill:none;stroke:#FFFFFF;stroke-width:0.8298;stroke-miterlimit:10;" x1="1559.127" y1="1971.73" x2="1544.861" y2="1971.73"/>
		<path style="fill:#FFFFFF;" d="M1724.075,1969.884c0,3.337,2.705,6.042,6.042,6.042c3.337,0,6.042-2.705,6.042-6.042
			s-2.705-6.042-6.042-6.042C1726.78,1963.842,1724.075,1966.547,1724.075,1969.884z"/>
		<path style="fill:#FFFFFF;" d="M1590.097,1969.884c0,3.337,2.705,6.042,6.042,6.042s6.042-2.705,6.042-6.042
			s-2.705-6.042-6.042-6.042S1590.097,1966.547,1590.097,1969.884z"/>
		<path style="fill:#F74242;" d="M1616.255,1328.893c0,0-11.977,29.328-13.941,70.8c-1.964,41.472-19.738,334.84-19.738,334.84
			h-36.28c0,0,40.196-258.117,34.979-284.482c-5.217-26.364-15.681-41.768-11.041-58.06c4.64-16.292,27.242-57.083,27.242-57.083
			L1616.255,1328.893z"/>
		<path style="fill:none;stroke:#FFFFFF;stroke-width:1.2631;stroke-miterlimit:10;" d="M1583.483,1435.03
			c0,0-8.175-17.893-7.92-31.345c0.255-13.453,9.455-25.181,9.455-25.181"/>
		<path style="fill:#FFFFFF;" d="M1617.602,1979.717l-0.374,8.876h-83.399l0.351-2.109c0.396-2.373,0.967-4.614,1.802-6.767
			H1617.602z"/>
		<path style="fill:#FFFFFF;" d="M1747.028,1988.593h-79.005c0.175-3.076,0.747-6.063,1.713-8.876h76.896l0.044,1.23
			L1747.028,1988.593z"/>
		<polygon style="fill:#E89780;" points="1692.913,1912.198 1745.868,1897.722 1745.895,1893.809 1688.658,1893.809 		"/>
		<path style="fill:none;stroke:#93ACBF;stroke-width:19.7272;stroke-linecap:round;stroke-miterlimit:10;" d="M1479.921,1495.558
			c85.546-0.391,175.694,3.343,186.876,105.21c11.182,101.867-39.089,352.508,267.325,356.057"/>
		<polygon style="fill:#E89780;" points="1568.026,1912.198 1625.528,1898.834 1625.528,1893.809 1567.597,1893.809 		"/>
		<path style="fill:#F74242;" d="M1441.975,1435.092l-2.138,49.338c0,0,98.362,28.731,125.402,0.831
			c27.039-27.9,1.179-56.563-18.313-55.907C1527.434,1430.008,1441.975,1435.092,1441.975,1435.092z"/>
		<g>
			<path style="fill:#93ACBF;" d="M1229.187,1430.225L1229.187,1430.225c0-10.57,8.568-19.138,19.138-19.138h144.813v38.276
				h-144.813C1237.755,1449.363,1229.187,1440.794,1229.187,1430.225z"/>
			<path style="fill:#93ACBF;" d="M1229.187,1551.858L1229.187,1551.858c0,10.57,8.568,19.138,19.138,19.138h144.813v-38.276
				h-144.813C1237.755,1532.72,1229.187,1541.289,1229.187,1551.858z"/>
			<path style="fill:#586773;" d="M1348.907,1600.767v-219.452h87.611c60.6,0,109.726,49.126,109.726,109.726v0
				c0,60.6-49.126,109.726-109.726,109.726H1348.907z"/>
			
				<rect x="1220.504" y="1473.179" transform="matrix(-1.836970e-16 1 -1 -1.836970e-16 2836.05 146.0334)" style="fill:#93ACBF;" width="249.009" height="35.725"/>
			<path style="fill:#F9ECB8;" d="M1447.572,1435.052c-9.62,0-17.443-7.823-17.443-17.443c0-3.123,0.82-6.025,2.24-8.548
				c1.798-3.217,4.605-5.804,8.012-7.318c2.177-1.01,4.637-1.577,7.192-1.577c9.62,0,17.443,7.823,17.443,17.443
				c0,3.091-0.82,5.993-2.239,8.516c-1.798,3.217-4.574,5.804-7.98,7.318C1452.587,1434.484,1450.159,1435.052,1447.572,1435.052z"
				/>
			<path style="fill:#F9E181;" d="M1454.795,1433.443l-22.427-24.382c1.798-3.217,4.605-5.804,8.012-7.318l22.396,24.382
				C1460.978,1429.343,1458.202,1431.929,1454.795,1433.443z"/>
			<path style="fill:#F9ECB8;" d="M1447.572,1547.031c-9.62,0-17.443,7.823-17.443,17.443c0,3.123,0.82,6.025,2.24,8.548
				c1.798,3.217,4.605,5.804,8.012,7.318c2.177,1.01,4.637,1.577,7.192,1.577c9.62,0,17.443-7.823,17.443-17.443
				c0-3.091-0.82-5.993-2.239-8.516c-1.798-3.217-4.574-5.804-7.98-7.318C1452.587,1547.599,1450.159,1547.031,1447.572,1547.031z"
				/>
			<path style="fill:#F9E181;" d="M1454.795,1548.64l-22.427,24.382c1.798,3.217,4.605,5.804,8.012,7.318l22.396-24.382
				C1460.978,1552.741,1458.202,1550.154,1454.795,1548.64z"/>
			<path style="fill:#93ACBF;" d="M1400.793,1534.422v-86.76c0-1.871,1.531-3.402,3.402-3.402l0,0c1.871,0,3.402,1.531,3.402,3.402
				v86.76c0,1.871-1.531,3.402-3.402,3.402l0,0C1402.324,1537.824,1400.793,1536.293,1400.793,1534.422z"/>
			<path style="fill:#93ACBF;" d="M1417.379,1534.422v-86.76c0-1.871,1.531-3.402,3.402-3.402l0,0c1.871,0,3.402,1.531,3.402,3.402
				v86.76c0,1.871-1.531,3.402-3.402,3.402l0,0C1418.91,1537.824,1417.379,1536.293,1417.379,1534.422z"/>
			<path style="fill:#93ACBF;" d="M1433.965,1534.422v-86.76c0-1.871,1.531-3.402,3.402-3.402l0,0c1.871,0,3.402,1.531,3.402,3.402
				v86.76c0,1.871-1.531,3.402-3.402,3.402l0,0C1435.496,1537.824,1433.965,1536.293,1433.965,1534.422z"/>
			<path style="fill:#93ACBF;" d="M1450.552,1534.422v-86.76c0-1.871,1.531-3.402,3.402-3.402l0,0c1.871,0,3.402,1.531,3.402,3.402
				v86.76c0,1.871-1.531,3.402-3.402,3.402l0,0C1452.083,1537.824,1450.552,1536.293,1450.552,1534.422z"/>
			<path style="fill:#93ACBF;" d="M1467.138,1534.422v-86.76c0-1.871,1.531-3.402,3.402-3.402l0,0c1.871,0,3.402,1.531,3.402,3.402
				v86.76c0,1.871-1.531,3.402-3.402,3.402l0,0C1468.669,1537.824,1467.138,1536.293,1467.138,1534.422z"/>
			<path style="fill:#93ACBF;" d="M1483.725,1534.422v-86.76c0-1.871,1.531-3.402,3.402-3.402l0,0c1.871,0,3.402,1.531,3.402,3.402
				v86.76c0,1.871-1.531,3.402-3.402,3.402l0,0C1485.256,1537.824,1483.725,1536.293,1483.725,1534.422z"/>
		</g>
		<path style="fill:#FDAE97;" d="M1458.128,1504.025c0.226-2.787,4.463-1.608,4.463-1.608s-2.867-3.518-1.06-6.014
			c1.807-2.496,13.121-0.792,18.39-0.846c5.269-0.054,17.541-1.155,18.603-2.645c1.062-1.49-15.134-3.771-15.362-7.133
			c-0.227-3.362,23.127-4.767,31.667-4.277c3.673,0.211,8.076-0.071,11.905-0.46l107.121-35.206
			c12.747-2.385,25.387,7.479,28.089,21.92c2.702,14.441-5.516,28.208-18.263,30.594l-110.612,10.625
			c-4.484,1.696-25.857,9.715-35.112,12.062c-10.368,2.629-24.996,1.628-25.711-0.698c-0.715-2.325,1.471-2.744,1.471-2.744
			s-10.918-1.97-11.433-5.105c-0.515-3.135,1.776-2.239,1.776-2.239S1457.902,1506.812,1458.128,1504.025z"/>
		<path style="fill:#F74242;" d="M1526.604,1473.948l8.308,43.218c0,0,94.126-7.269,114.219-19.482
			c20.093-12.213,15.638-24.063,12.837-33.526c-2.801-9.463-13.216-22.903-27.349-20.107
			C1620.487,1446.846,1526.604,1473.948,1526.604,1473.948z"/>
		
			<line style="fill:none;stroke:#FFFFFF;stroke-width:1.2631;stroke-miterlimit:10;" x1="1632.577" y1="1433.443" x2="1656.7" y2="1389.039"/>
		<path style="fill:none;stroke:#FFFFFF;stroke-width:1.2631;stroke-miterlimit:10;" d="M1644.639,1499.873
			c0,0,25.893-10.557,34.936-29.974c9.043-19.417,18.619-42.823,18.619-42.823"/>
	</g>
	<g>
		<path style="fill:#FDAE97;" d="M1113.58,1558.986c-0.829,2.235-15.276,2.116-25.265-1.26
			c-8.469-2.851-27.286-11.527-32.814-14.123l10.446-33.95c3.535,0.61,10.877,1.154,14.207,1.938
			c8.86,2.086,25.816,9.338,25.336,12.646c-0.45,3.281-15.938,0.172-15.002,1.717c0.936,1.545,12.303,7.667,17.457,8.106
			c5.181,0.47,16.404-0.355,17.984,2.221c1.608,2.608-1.501,5.825-1.501,5.825s4.259-0.811,4.278,1.94
			c0.019,2.751-6.29,5.67-6.29,5.67s2.294-0.718,1.565,2.312c-0.759,3.058-11.617,4.168-11.617,4.168
			S1114.468,1556.755,1113.58,1558.986z"/>
		<path style="fill:#F74242;" d="M1068.012,1502.945l-106.755-42.897c-12.833-4.716-27.719,3.291-33.106,17.833
			c-5.353,14.542,0.77,30.325,13.603,35.074l111.225,38.847L1068.012,1502.945z"/>
		<polygon style="fill:#FDAE97;" points="929.436,1383.881 875.795,1382.97 878.605,1326.645 879.946,1299.71 880.022,1298.369 
			921.994,1280.724 923.361,1299.761 924.373,1313.633 		"/>
		<path style="fill:#B86B76;" d="M824.532,1558.231l-22.557,186.728c-0.709,4.72-0.686,9.627,0.277,14.58
			c4.532,23.315,27.107,38.542,50.422,34.01c23.315-4.532,32.238-22.535,36.426-49.306c8.039-51.391,36.115-205.582,36.115-205.582
			L824.532,1558.231z"/>
		<polygon style="fill:#B86B76;" points="970.795,1548.832 887.934,1554.391 888.347,1646.192 898.182,1660.736 907.298,1749.235 
			991.173,1742.53 		"/>
		<path style="fill:#FDAE97;" d="M903.312,1360.326c19.682,0.433,29.261-10.364,31.324-15.125l-8.557-2.311l-48.206-1.531
			l-5.848,1.872C874.493,1347.825,883.204,1359.883,903.312,1360.326z"/>
		<path style="fill:#F74242;" d="M970.209,1528.76l0.338-0.005c14.846-0.244,26.792-12.591,26.548-27.436l-1.99-120.961
			c-0.244-14.846-12.59-26.792-27.436-26.548l-0.338,0.005c-14.846,0.244-26.792,12.59-26.548,27.436l1.99,120.962
			C943.018,1517.058,955.364,1529.004,970.209,1528.76z"/>
		<path style="fill:#FFFFFF;" d="M973.16,1482.781l-0.846,80.49H823.923l0.685-202.924l51.993-18.787
			c0.583,1.068,1.214,2.185,1.99,3.35l0.194,0.243c2.816,3.592,8.204,6.991,23.302,7.331c12.573,0.291,18.739-1.456,22.234-3.738
			l0.049-0.049c1.893-1.262,3.398-3.755,4.272-5.114l48.692,11.813l-3.301,102.433L973.16,1482.781z"/>
		<path style="fill:#F74242;" d="M934.635,1345.201c0,0-4.211,75.095-3.605,118.502c0.607,43.406,3.605,153.101,3.605,153.101
			s27.489,0.581,52.775-4.539c0,0,0.381-49.695-6.59-83.967c-6.972-34.272-3.485-172.902-3.485-172.902L934.635,1345.201z"/>
		<path style="fill:#F74242;" d="M862.331,1530.969l0.331-0.068c14.548-2.968,24.023-17.298,21.056-31.846l-24.179-118.537
			c-2.967-14.548-17.298-24.023-31.846-21.056l-0.331,0.068c-14.548,2.968-24.023,17.298-21.056,31.846l24.179,118.537
			C833.452,1524.461,847.783,1533.936,862.331,1530.969z"/>
		<path style="fill:#B86B76;" d="M786.266,1934.489l77.94-0.054l23.494-181.375c2.453-23.636-14.682-44.802-38.287-47.29
			c-23.637-2.453-44.769,14.68-47.257,38.285c-0.224,2.052-0.25,4.056-0.175,6.087l-13.568,159.196L786.266,1934.489
			L786.266,1934.489z"/>
		<path style="fill:#B86B76;" d="M906.999,1745.973l20.015,188.516h76.571l-12.277-189.548c0.1-1.998-0.466-4.229-0.633-6.293
			c-2.098-23.674-20.911-41.355-44.585-39.291C922.449,1701.455,904.935,1722.299,906.999,1745.973z"/>
		<path style="fill:#322A28;" d="M932.525,1268.188c0,0,7.132-17.805-1.608-16.175
			C922.178,1253.644,932.525,1268.188,932.525,1268.188z"/>
		<path style="fill:#F74242;" d="M872.025,1343.23c0,0,20.292,105.2,20.974,157.488c0.682,52.287,0.682,52.287,0.682,52.287
			l-2.324,63.798c0,0-56.535,7.008-76.301-1.054c0,0-1.38-75.731,3.873-102.545c5.253-26.814,5.679-152.858,5.679-152.858
			L872.025,1343.23z"/>
		<polygon style="fill:#EA9D85;" points="925.853,1334.161 895.7,1312.175 924.373,1313.633 		"/>
		
			<path style="fill:none;stroke:#FFFFFF;stroke-width:1.4363;stroke-linecap:round;stroke-linejoin:round;stroke-miterlimit:10;" d="
			M882.449,1601.36c0,0-41.152,6.815-60.324,0"/>
		<path style="fill:#FDAE97;" d="M931.92,1254.189c0,0,1.707,17.946,2.917,30.676l1.001,10.522
			c0.791,8.313-0.368,20.867-9.453,24.61c-9.054,3.74-22.278,1.066-32.16-7.806c-9.885-8.903-33.941-50.941-7.845-69.797
			C912.506,1223.534,930.868,1249.956,931.92,1254.189z"/>
		
			<path style="fill:none;stroke:#FFFFFF;stroke-width:1.4363;stroke-linecap:round;stroke-linejoin:round;stroke-miterlimit:10;" d="
			M944.419,1365.933c0,0-4.083,65.649-5.527,94.698c-1.444,29.049,5.527,131.299,5.527,131.299"/>
		<path style="fill:#322A28;" d="M879.076,1314.622c0,0,6.801-11.37,6.341-17.564s6.641-13.164,5.495-22.677
			c-1.145-9.513-1.603-13.522,3.321-13.063s39.739,8.245,40.655-8.246c0.916-16.491-40.218-32.41-56.813-4.466
			c0,0-11.034-0.505-7.663,22.888C873.785,1294.885,878.692,1298.87,879.076,1314.622z"/>
		
			<path style="fill:none;stroke:#FFFFFF;stroke-width:1.4363;stroke-linecap:round;stroke-linejoin:round;stroke-miterlimit:10;" d="
			M863.348,1353.539c0,0,7.73,64.294,12.447,96.053s5.534,110.042,6.654,139.045"/>
		<g>
			<path style="fill:#FDAE97;" d="M889.531,1292.536c3.729,4.774,4.936,8.269,1.188,11.196s-10.46,2.754-14.189-2.02
				c-3.729-4.774-3.713-11.017,0.035-13.945C880.313,1284.839,885.802,1287.762,889.531,1292.536z"/>
		</g>
		<path style="fill:#322A28;" d="M909.288,1279.897c0.183,1.928,1.343,3.395,2.591,3.277c1.247-0.119,2.11-1.778,1.927-3.706
			s-1.343-3.395-2.591-3.277C909.968,1276.31,909.105,1277.969,909.288,1279.897z"/>
		<path style="fill:#322A28;" d="M932.613,1277.679c0.183,1.928-0.679,3.588-1.927,3.706c-1.247,0.119-2.407-1.348-2.591-3.277
			c-0.183-1.928,0.679-3.588,1.927-3.706S932.43,1275.751,932.613,1277.679z"/>
		<path style="fill:#EA9D85;" d="M914.089,1292.289c-0.425,1.828-3.716,2.625-7.351,1.781s-6.237-3.011-5.812-4.84
			c0.425-1.828,3.716-2.625,7.351-1.781C911.912,1288.294,914.514,1290.461,914.089,1292.289z"/>
		<path style="fill:#EA9D85;" d="M934.837,1284.865l0.651,6.841c-2.851,0.612-5.289,0.039-5.831-1.427
			C929.058,1288.541,931.366,1286.124,934.837,1284.865z"/>
		
			<path style="fill:none;stroke:#EA9D85;stroke-width:1.3993;stroke-linecap:round;stroke-linejoin:round;stroke-miterlimit:10;" d="
			M880.685,1297.667c3.093-0.894,5.739-0.546,5.739-0.546c-3.306-4.986-7.347-3.984-7.347-3.984"/>
		<path style="fill:none;stroke:#332B27;stroke-width:0.8951;stroke-miterlimit:10;" d="M919.008,1280.32l5.427,11.909
			c0.55,1.207,0.207,2.633-0.831,3.458l-1.607,1.277l-1.647,1.309"/>
		<path style="fill:none;stroke:#332B27;stroke-width:0.8951;stroke-miterlimit:10;" d="M906.079,1276.243
			c0,0,3.741-4.474,8.69-3.617"/>
		<path style="fill:none;stroke:#332B27;stroke-width:0.8951;stroke-miterlimit:10;" d="M934.14,1271.493
			c0,0-3.594-2.822-7.927-0.281"/>
		<polygon style="fill:#FDAE97;" points="938.063,1963.95 936.01,1934.489 993.379,1934.489 995.62,1963.95 		"/>
		<polygon style="fill:#EA9D85;" points="994.394,1947.836 936.01,1934.489 993.379,1934.489 		"/>
		<polygon style="fill:#FDAE97;" points="852.909,1963.95 855.11,1934.441 796.348,1934.489 795.352,1963.95 		"/>
		<polygon style="fill:#EA9D85;" points="853.882,1950.9 796.348,1934.489 855.11,1934.441 		"/>
		<path style="fill:#322A28;" d="M1023.891,1988.732h-84.714l-0.145-3.447l-1.04-22.832h57.645c7.136,0,13.739,4.19,18.787,8.559
			c4.175,3.738,7.282,8.641,8.739,14.273C1023.503,1986.402,1023.745,1987.567,1023.891,1988.732z"/>
		<path style="fill:#FFF1F0;" d="M1023.891,1988.732h-84.714l-0.145-3.447h84.131
			C1023.503,1986.402,1023.745,1987.567,1023.891,1988.732z"/>
		<g>
			
				<path style="fill:none;stroke:#FFF1F0;stroke-width:1.1083;stroke-linecap:round;stroke-linejoin:round;stroke-miterlimit:10;" d="
				M997.372,1967.15c0,0-7.322-12.851-12.254-7.771C980.187,1964.461,997.372,1967.15,997.372,1967.15"/>
			
				<path style="fill:none;stroke:#FFF1F0;stroke-width:1.1083;stroke-linecap:round;stroke-linejoin:round;stroke-miterlimit:10;" d="
				M994.794,1969.709l2.578-2.559c0,0,7.322-12.851,12.254-7.771c4.931,5.081-12.254,7.771-12.254,7.771"/>
			
				<line style="fill:none;stroke:#FFF1F0;stroke-width:1.1083;stroke-linecap:round;stroke-linejoin:round;stroke-miterlimit:10;" x1="999.339" y1="1969.709" x2="997.372" y2="1967.15"/>
		</g>
		<path style="fill:#322A28;" d="M767.521,1988.732h84.714l0.145-3.447l1.04-22.832h-57.645c-7.137,0-13.739,4.19-18.788,8.559
			c-4.175,3.738-7.282,8.641-8.739,14.273C767.909,1986.402,767.666,1987.567,767.521,1988.732z"/>
		<path style="fill:#FFF1F0;" d="M767.521,1988.732h84.714l0.145-3.447h-84.131C767.909,1986.402,767.666,1987.567,767.521,1988.732
			z"/>
		<g>
			
				<path style="fill:none;stroke:#FFF1F0;stroke-width:1.1083;stroke-linecap:round;stroke-linejoin:round;stroke-miterlimit:10;" d="
				M794.04,1967.928c0,0,7.322-12.851,12.254-7.771C811.225,1965.239,794.04,1967.928,794.04,1967.928"/>
			
				<path style="fill:none;stroke:#FFF1F0;stroke-width:1.1083;stroke-linecap:round;stroke-linejoin:round;stroke-miterlimit:10;" d="
				M796.618,1970.487l-2.578-2.559c0,0-7.322-12.851-12.254-7.771c-4.931,5.081,12.254,7.771,12.254,7.771"/>
			
				<line style="fill:none;stroke:#FFF1F0;stroke-width:1.1083;stroke-linecap:round;stroke-linejoin:round;stroke-miterlimit:10;" x1="792.073" y1="1970.487" x2="794.04" y2="1967.928"/>
		</g>
		
			<polyline style="fill:none;stroke:#FFFFFF;stroke-width:0.7282;stroke-linecap:round;stroke-linejoin:round;stroke-miterlimit:10;" points="
			900.086,1679.227 906.834,1656.697 913.3,1656.697 923.595,1628.81 		"/>
		
			<line style="fill:none;stroke:#FFFFFF;stroke-width:0.7282;stroke-linecap:round;stroke-linejoin:round;stroke-miterlimit:10;" x1="794.04" y1="1913.195" x2="860.368" y2="1913.195"/>
		
			<line style="fill:none;stroke:#FFFFFF;stroke-width:0.7282;stroke-linecap:round;stroke-linejoin:round;stroke-miterlimit:10;" x1="929.292" y1="1913.195" x2="995.62" y2="1913.195"/>
		<path style="fill:#FFFFFF;" d="M914.043,1301.712l10.188,3.582c0,0-2.092,5.2-7.238,3.708
			C911.848,1307.511,914.043,1301.712,914.043,1301.712z"/>
		
			<path style="fill:none;stroke:#FFFFFF;stroke-width:1.4363;stroke-linecap:round;stroke-linejoin:round;stroke-miterlimit:10;" d="
			M983.925,1597.546c0,0-19.753,6.584-39.506,1.356"/>
		<path style="fill:#FFFFFF;" d="M944.419,1484.645c0,2.032,1.647,3.679,3.679,3.679c2.032,0,3.679-1.647,3.679-3.679
			c0-2.032-1.647-3.679-3.679-3.679C946.066,1480.965,944.419,1482.612,944.419,1484.645z"/>
		<g>
			<path style="fill:#586773;" d="M1132.412,1617.434v-219.452h-74.104c-57.626,0-104.342,46.715-104.342,104.342v10.768
				c0,57.626,46.715,104.342,104.342,104.342H1132.412z"/>
			<path style="fill:#93ACBF;" d="M1164.209,1612.234v-209.05c0-2.872-2.328-5.201-5.201-5.201h-32.65
				c-2.872,0-5.201,2.328-5.201,5.201v209.05c0,2.872,2.328,5.201,5.201,5.201h32.65
				C1161.881,1617.434,1164.209,1615.106,1164.209,1612.234z"/>
			<path style="fill:#586773;" d="M1158.88,1403.313v208.792h-32.392v-208.792H1158.88 M1159.007,1401.34h-32.646
				c-1.017,0-1.846,0.825-1.846,1.842v209.05c0,1.017,0.828,1.846,1.846,1.846h32.646c1.017,0,1.846-0.828,1.846-1.846v-209.05
				C1160.852,1402.165,1160.024,1401.34,1159.007,1401.34L1159.007,1401.34z"/>
			<path style="fill:#F9ECB8;" d="M1033.746,1451.719c9.62,0,17.443-7.823,17.443-17.443c0-3.123-0.82-6.025-2.24-8.548
				c-1.798-3.217-4.605-5.804-8.012-7.318c-2.177-1.01-4.637-1.577-7.192-1.577c-9.62,0-17.443,7.823-17.443,17.443
				c0,3.091,0.82,5.993,2.239,8.516c1.798,3.217,4.574,5.804,7.98,7.318C1028.731,1451.151,1031.16,1451.719,1033.746,1451.719z"/>
			<path style="fill:#F9E181;" d="M1026.523,1450.11l22.427-24.382c-1.798-3.217-4.605-5.804-8.012-7.318l-22.395,24.382
				C1020.341,1446.009,1023.116,1448.596,1026.523,1450.11z"/>
			<path style="fill:#F9ECB8;" d="M1033.746,1563.698c9.62,0,17.443,7.823,17.443,17.443c0,3.123-0.82,6.025-2.24,8.548
				c-1.798,3.217-4.605,5.804-8.012,7.318c-2.177,1.01-4.637,1.577-7.192,1.577c-9.62,0-17.443-7.823-17.443-17.443
				c0-3.091,0.82-5.993,2.239-8.516c1.798-3.217,4.574-5.804,7.98-7.318C1028.731,1564.266,1031.16,1563.698,1033.746,1563.698z"/>
			<path style="fill:#F9E181;" d="M1026.523,1565.307l22.427,24.382c-1.798,3.217-4.605,5.804-8.012,7.318l-22.395-24.382
				C1020.341,1569.407,1023.116,1566.821,1026.523,1565.307z"/>
			<path style="fill:#93ACBF;" d="M1100.253,1551.089v-86.76c0-1.871-1.531-3.402-3.402-3.402l0,0c-1.871,0-3.402,1.531-3.402,3.402
				v86.76c0,1.871,1.531,3.402,3.402,3.402l0,0C1098.722,1554.491,1100.253,1552.96,1100.253,1551.089z"/>
			<path style="fill:#93ACBF;" d="M1083.667,1551.089v-86.76c0-1.871-1.531-3.402-3.402-3.402l0,0c-1.871,0-3.402,1.531-3.402,3.402
				v86.76c0,1.871,1.531,3.402,3.402,3.402l0,0C1082.136,1554.491,1083.667,1552.96,1083.667,1551.089z"/>
			<path style="fill:#93ACBF;" d="M1067.08,1551.089v-86.76c0-1.871-1.531-3.402-3.402-3.402l0,0c-1.871,0-3.402,1.531-3.402,3.402
				v86.76c0,1.871,1.531,3.402,3.402,3.402l0,0C1065.549,1554.491,1067.08,1552.96,1067.08,1551.089z"/>
			<path style="fill:#93ACBF;" d="M1050.494,1551.089v-86.76c0-1.871-1.531-3.402-3.402-3.402l0,0c-1.871,0-3.402,1.531-3.402,3.402
				v86.76c0,1.871,1.531,3.402,3.402,3.402l0,0C1048.963,1554.491,1050.494,1552.96,1050.494,1551.089z"/>
			<path style="fill:#93ACBF;" d="M1033.907,1551.089v-86.76c0-1.871-1.531-3.402-3.402-3.402l0,0c-1.871,0-3.402,1.531-3.402,3.402
				v86.76c0,1.871,1.531,3.402,3.402,3.402l0,0C1032.376,1554.491,1033.907,1552.96,1033.907,1551.089z"/>
			<path style="fill:#93ACBF;" d="M1017.321,1551.089v-86.76c0-1.871-1.531-3.402-3.402-3.402l0,0c-1.871,0-3.402,1.531-3.402,3.402
				v86.76c0,1.871,1.531,3.402,3.402,3.402l0,0C1015.79,1554.491,1017.321,1552.96,1017.321,1551.089z"/>
			<ellipse style="fill:#586773;" cx="1142.684" cy="1450.347" rx="12.244" ry="21.482"/>
			<ellipse style="fill:#586773;" cx="1142.684" cy="1565.07" rx="12.244" ry="21.482"/>
		</g>
		<path style="fill:none;stroke:#93ACBF;stroke-width:19.7272;stroke-linecap:round;stroke-miterlimit:10;" d="M1003.585,1505.248
			c0,0-101.836-29.74-127.79,38.34s21.03,356.063-74.314,390.283c-123.478,44.318-449.06,25.098-449.06,25.098"/>
		<path style="fill:#FFFFFF;" d="M944.419,1518.445c0,2.032,1.647,3.68,3.679,3.68c2.032,0,3.679-1.647,3.679-3.68
			c0-2.032-1.647-3.679-3.679-3.679C946.066,1514.766,944.419,1516.413,944.419,1518.445z"/>
		<path style="fill:#FFFFFF;" d="M949.066,1576.379c0,2.032,1.647,3.68,3.68,3.68s3.68-1.647,3.68-3.68s-1.647-3.679-3.68-3.679
			S949.066,1574.347,949.066,1576.379z"/>
		<path style="fill:#FDAE97;" d="M1033.694,1525.04c-0.191,2.376-14.128,6.182-24.659,5.644c-8.925-0.445-29.39-3.689-35.415-4.688
			l0.84-35.511c3.568-0.372,10.782-1.841,14.2-1.991c9.094-0.397,27.381,1.981,27.817,5.295c0.458,3.28-15.293,4.491-13.973,5.724
			c1.32,1.233,13.923,4.04,19.002,3.064c5.114-0.954,15.692-4.794,17.912-2.743c2.255,2.074,0.136,6.013,0.136,6.013
			s3.879-1.937,4.644,0.706c0.765,2.643-4.516,7.164-4.516,7.164s2.013-1.314,2.134,1.801c0.1,3.149-10.05,7.164-10.05,7.164
			S1033.943,1522.651,1033.694,1525.04z"/>
		<path style="fill:#F74242;" d="M974.626,1483.469l-114.391-12.314c-13.631-1.056-25.786,10.69-27.023,26.149
			c-1.206,15.449,8.971,28.978,22.612,30.066l117.593,7.203L974.626,1483.469z"/>
		<polyline style="fill:none;stroke:#332B27;stroke-width:1.2564;stroke-miterlimit:10;" points="891.535,1474.524 
			878.714,1474.524 861.809,1413.51 		"/>
		<path style="fill:none;stroke:#332B27;stroke-width:1.2564;stroke-miterlimit:10;" d="M826.107,1488.452
			c0,0,6.023,28.713,12.351,33.673c6.328,4.96,53.077,7.432,53.077,7.432"/>
	</g>
	<path style="fill:#0775EF;" d="M1999.515,2031.458H330.873c-10.693,0-19.361-8.668-19.361-19.361v-4.536
		c0-10.693,8.668-19.361,19.361-19.361h1668.642c10.693,0,19.361,8.668,19.361,19.361v4.536
		C2018.876,2022.79,2010.208,2031.458,1999.515,2031.458z"/>
	<g>
		<path style="fill:#FFFFFF;" d="M1789.62,1416.856v-12.694l73.285-39.662v19.389l-48.953,26.62l48.953,26.62v19.389
			L1789.62,1416.856z"/>
		<path style="fill:#FFFFFF;" d="M1885.208,1472.382l-12.021-5.287l45.186-136.797l12.021,5.642L1885.208,1472.382z"/>
		<path style="fill:#FFFFFF;" d="M2015.7,1404.161v12.694l-73.286,39.662v-19.389l48.953-26.62l-48.953-26.62V1364.5
			L2015.7,1404.161z"/>
	</g>
	<path style="fill:#FFFFFF;" d="M802.305,633.233c14.48,20.502,41.455,26.723,63.321,16.061l53.752,76.105l13.188-9.315
		l-53.745-76.095c17.419-17.024,20.534-44.52,6.029-65.057c-16.088-22.778-47.629-28.295-70.407-12.207
		C791.665,578.813,786.217,610.455,802.305,633.233z M875.881,581.268c12.529,17.739,8.266,42.504-9.472,55.032
		c-17.84,12.6-42.503,8.265-55.032-9.474c-12.599-17.838-8.366-42.431,9.473-55.031
		C838.588,559.267,863.282,563.429,875.881,581.268z"/>
	<g>
		<path style="fill:#F9E181;" d="M1963.732,1215.58h-178.476c-5.813,0-10.526-4.712-10.526-10.525v-127.506
			c0-5.813,4.712-10.526,10.526-10.526h178.476c5.813,0,10.526,4.712,10.526,10.526v127.506
			C1974.257,1210.868,1969.545,1215.58,1963.732,1215.58z"/>
		<g>
			<path style="fill:#FFFFFF;" d="M1862.187,1163.545c0,3.94-0.641,7.731-1.901,11.396c-1.271,3.654-3.15,6.872-5.635,9.644
				c-2.485,2.76-5.601,4.971-9.357,6.609c-3.757,1.638-8.12,2.463-13.091,2.463c-7.88,0-14.328-1.833-19.345-5.486
				c-5.028-3.665-8.327-9.472-9.93-17.455l16.608-3.94c0.573,3.287,1.901,5.91,4.02,7.88c2.108,1.97,4.707,2.955,7.811,2.955
				c5.063,0,8.51-1.706,10.342-5.131c1.833-3.425,2.737-8.143,2.737-14.145v-66.854h17.741V1163.545z"/>
			<path style="fill:#FFFFFF;" d="M1932.557,1112.874c-1.878-2.726-4.387-4.719-7.536-5.979c-3.138-1.271-6.448-1.901-9.919-1.901
				c-2.062,0-4.055,0.229-5.979,0.699c-1.924,0.47-3.665,1.225-5.211,2.256c-1.546,1.031-2.795,2.371-3.734,4.009
				s-1.397,3.585-1.397,5.841c0,3.379,1.168,5.956,3.516,7.742c2.336,1.787,5.246,3.333,8.728,4.639
				c3.47,1.317,7.261,2.589,11.396,3.803c4.123,1.225,7.926,2.909,11.396,5.063c3.47,2.165,6.38,5.028,8.728,8.59
				c2.348,3.562,3.516,8.304,3.516,14.214c0,5.349-0.985,10.022-2.955,14.008c-1.97,3.986-4.616,7.296-7.949,9.919
				c-3.333,2.623-7.204,4.604-11.614,5.91c-4.41,1.317-9.048,1.97-13.927,1.97c-6.196,0-12.152-1.031-17.879-3.092
				c-5.727-2.062-10.652-5.532-14.775-10.411l13.366-12.954c2.165,3.287,5.005,5.841,8.521,7.674
				c3.516,1.821,7.25,2.737,11.19,2.737c2.062,0,4.123-0.275,6.185-0.836c2.062-0.573,3.94-1.409,5.635-2.543
				c1.684-1.122,3.047-2.554,4.077-4.284c1.031-1.741,1.546-3.734,1.546-5.99c0-3.654-1.168-6.471-3.516-8.441
				s-5.257-3.631-8.728-4.994c-3.47-1.363-7.273-2.646-11.396-3.871c-4.135-1.214-7.926-2.886-11.396-4.994
				c-3.482-2.119-6.391-4.925-8.728-8.453c-2.348-3.516-3.516-8.224-3.516-14.134c0-5.166,1.054-9.621,3.161-13.378
				c2.108-3.745,4.879-6.872,8.304-9.358c3.425-2.485,7.342-4.341,11.751-5.555c4.41-1.225,8.911-1.832,13.515-1.832
				c5.246,0,10.343,0.802,15.267,2.394s9.357,4.215,13.297,7.88L1932.557,1112.874z"/>
		</g>
	</g>
	<g>
		<path style="fill:#F9E181;" d="M554.416,1525.58H183.727c-9.405,0-17.03-7.625-17.03-17.03v-157.652
			c0-9.405,7.624-17.03,17.03-17.03h370.688c9.405,0,17.03,7.625,17.03,17.03v157.652
			C571.445,1517.956,563.821,1525.58,554.416,1525.58z"/>
		<g>
			<path style="fill:#FFFFFF;" d="M200.214,1384.914h15.946v35.699h41.895v-35.699h15.957v89.62h-15.957v-39.495H216.16v39.495
				h-15.946V1384.914z"/>
			<path style="fill:#FFFFFF;" d="M312.363,1399.346H284.89v-14.432h70.882v14.432h-27.463v75.188h-15.946V1399.346z"/>
			<path style="fill:#FFFFFF;" d="M367.052,1384.914h24.301l23.919,62.786l24.177-62.786h24.053v89.62h-15.184v-74.431h-0.258
				l-27.216,74.431H409.71l-27.216-74.431h-0.258v74.431h-15.184V1384.914z"/>
			<path style="fill:#FFFFFF;" d="M483.878,1384.914h15.946v75.188h38.104v14.432h-54.05V1384.914z"/>
		</g>
	</g>
	<g>
		<path style="fill:#088CFC;" d="M1281.026,1899.233h-231.408c-6.435,0-11.653-5.217-11.653-11.653v-119.325
			c0-6.436,5.217-11.653,11.653-11.653h231.408c6.436,0,11.653,5.217,11.653,11.653v119.325
			C1292.678,1894.016,1287.461,1899.233,1281.026,1899.233z"/>
		<g>
			<path style="fill:#FFFFFF;" d="M1061.662,1787.369h28.524c5.192,0,9.471,0.708,12.826,2.121c3.365,1.412,6.012,3.207,7.961,5.383
				c1.948,2.177,3.3,4.619,4.064,7.331c0.764,2.713,1.146,5.327,1.146,7.844c0,2.521-0.382,5.136-1.146,7.849
				c-0.764,2.708-2.116,5.155-4.064,7.331c-1.948,2.177-4.595,3.971-7.961,5.383c-3.356,1.412-7.634,2.116-12.826,2.116h-17.525
				v35.739h-10.999V1787.369z M1072.661,1823.108h14.43c2.135,0,4.26-0.173,6.357-0.517c2.097-0.34,3.971-0.974,5.612-1.888
				c1.641-0.918,2.964-2.233,3.952-3.952c0.997-1.72,1.491-3.952,1.491-6.702c0-2.75-0.494-4.982-1.491-6.698
				c-0.988-1.72-2.312-3.039-3.952-3.952c-1.641-0.918-3.514-1.547-5.612-1.892c-2.097-0.345-4.223-0.513-6.357-0.513h-14.43
				V1823.108z"/>
			<path style="fill:#FFFFFF;" d="M1129.588,1787.369h10.999v33.679h42.04v-33.679h10.99v81.097h-10.99v-37.114h-42.04v37.114
				h-10.999V1787.369z"/>
			<path style="fill:#FFFFFF;" d="M1214.46,1787.369h28.524c5.192,0,9.471,0.708,12.826,2.121c3.365,1.412,6.012,3.207,7.961,5.383
				c1.948,2.177,3.3,4.619,4.064,7.331c0.764,2.713,1.147,5.327,1.147,7.844c0,2.521-0.382,5.136-1.147,7.849
				c-0.764,2.708-2.116,5.155-4.064,7.331c-1.948,2.177-4.596,3.971-7.961,5.383c-3.356,1.412-7.634,2.116-12.826,2.116h-17.525
				v35.739h-10.999V1787.369z M1225.46,1823.108h14.43c2.135,0,4.26-0.173,6.357-0.517c2.097-0.34,3.971-0.974,5.612-1.888
				c1.641-0.918,2.964-2.233,3.952-3.952c0.997-1.72,1.491-3.952,1.491-6.702c0-2.75-0.494-4.982-1.491-6.698
				c-0.988-1.72-2.312-3.039-3.952-3.952c-1.641-0.918-3.514-1.547-5.612-1.892c-2.097-0.345-4.223-0.513-6.357-0.513h-14.43
				V1823.108z"/>
		</g>
	</g>
	<g>
		<path style="fill:#088CFC;" d="M1350.859,732.398h-218.965c-6.828,0-12.364-5.535-12.364-12.363V576.938
			c0-6.828,5.535-12.364,12.364-12.364h218.965c6.828,0,12.363,5.535,12.363,12.364v143.097
			C1363.222,726.862,1357.687,732.398,1350.859,732.398z"/>
		<g>
			<path style="fill:#FFFFFF;" d="M1132.563,663.421v-12.22l70.545-38.179v18.664l-47.123,25.624l47.123,25.624V701.6
				L1132.563,663.421z"/>
			<path style="fill:#FFFFFF;" d="M1224.576,716.871l-11.571-5.089l43.497-131.682l11.571,5.431L1224.576,716.871z"/>
			<path style="fill:#FFFFFF;" d="M1350.189,651.201v12.22l-70.545,38.179v-18.664l47.123-25.624l-47.123-25.624v-18.664
				L1350.189,651.201z"/>
		</g>
	</g>
</g>
</svg>
